<svg xmlns="http://www.w3.org/2000/svg" viewBox="0 0 512 512">
<defs>
 <linearGradient id="bg" x1="0" y1="0" x2="1" y2="1"><stop offset="0" stop-color="#fff9ea"/><stop offset=".5" stop-color="#ead6ac"/><stop offset="1" stop-color="#cba15b"/></linearGradient>
 <linearGradient id="gold" x1="0" y1="0" x2="1" y2="1"><stop offset="0" stop-color="#fff1b8"/><stop offset=".22" stop-color="#c58a27"/><stop offset=".48" stop-color="#ffe18a"/><stop offset=".72" stop-color="#9b6415"/><stop offset="1" stop-color="#f8d36c"/></linearGradient>
 <filter id="shadow" x="-30%" y="-30%" width="160%" height="160%"><feDropShadow dx="0" dy="5" stdDeviation="6" flood-opacity=".28"/></filter>
 <filter id="soft"><feGaussianBlur stdDeviation="2"/></filter>
</defs>
<rect x="8" y="8" width="496" height="496" rx="112" fill="url(#bg)"/>
<rect x="18" y="18" width="476" height="476" rx="102" fill="none" stroke="#8e5c14" stroke-width="4"/>
<rect x="25" y="25" width="462" height="462" rx="95" fill="none" stroke="#fff4c9" stroke-width="3"/>
<path d="M42 258 Q170 350 256 300 T470 220" fill="none" stroke="#fff7df" stroke-width="20" opacity=".45" filter="url(#soft)"/>
<g filter="url(#shadow)" fill="url(#gold)" stroke="#7b4c0d" stroke-width="2">
 <path d="M165 151 L194 105 L231 132 L256 76 L281 132 L318 105 L347 151 L327 174 L185 174 Z"/>
 <path d="M174 165 H338 L327 190 H185 Z"/>
</g>
<g filter="url(#shadow)" fill="url(#gold)" stroke="#7b4c0d" stroke-width="3">
 <path d="M150 195 H238 C288 195 316 219 316 255 C316 289 293 309 259 314 L347 405 H293 L220 326 H198 V405 H150 Z
 M198 232 V290 H235 C257 290 270 278 270 260 C270 242 257 232 235 232 Z"/>
 <path d="M219 325 C244 350 274 378 313 401 C332 413 354 416 373 405 C348 438 305 433 272 409 C245 389 220 357 198 329 Z"/>
</g>
<text x="256" y="445" text-anchor="middle" font-family="Georgia,serif" font-size="39" font-weight="700" letter-spacing="8" fill="#4b2d0b">ROMANO</text>
<path d="M78 463 H175 M337 463 H434" stroke="#7b4c0d" stroke-width="2"/>
<text x="256" y="478" text-anchor="middle" font-family="Arial,sans-serif" font-size="11" letter-spacing="4" fill="#4b2d0b">PROPERTY CARE</text>
</svg>